Coordinates
version=1
nRows=41
nColumns=38
inDegrees=no

Units are S.I. units (second, meters, Newtons, ...)
If the header above contains a line with 'inDegrees', this indicates whether rotational values are in degrees (yes) or radians (no).

endheader
time	pelvis_tilt	pelvis_list	pelvis_rotation	pelvis_tx	pelvis_ty	pelvis_tz	hip_flexion_r	hip_adduction_r	hip_rotation_r	knee_angle_r	ankle_angle_r	subtalar_angle_r	mtp_angle_r	hip_flexion_l	hip_adduction_l	hip_rotation_l	knee_angle_l	ankle_angle_l	subtalar_angle_l	mtp_angle_l	lumbar_extension	lumbar_bending	lumbar_rotation	arm_flex_r	arm_add_r	arm_rot_r	elbow_flex_r	pro_sup_r	wrist_flex_r	wrist_dev_r	arm_flex_l	arm_add_l	arm_rot_l	elbow_flex_l	pro_sup_l	wrist_flex_l	wrist_dev_l
0	0.607082	1.52013	0.897264	0.719372	0.0433489	1.0078	0.00882263	-0.0326331	-0.194829	0.17787	0.183556	0	0	-0.0687181	-0.0700524	-0.123449	0	0.0821907	0	0	0.0713103	0.0744477	-0.00537855	-0.162239	-0.184526	0.0228127	0.610171	1.5708	0	0	0.0223963	-0.0477486	-0.0537422	0.216472	1.5708	0	0
0.01	0.601206	1.52011	0.903901	0.719317	0.0433102	1.00783	0.00884248	-0.0329721	-0.1947	0.177718	0.183522	0	0	-0.0686011	-0.069949	-0.119837	0	0.0807771	0	0	0.0709673	0.0748195	-0.00749021	-0.159608	-0.183991	0.0227869	0.60678	1.5708	0	0	-0.0429364	-0.0758363	0.068201	0.367459	1.5708	0	0
0.02	0.601321	1.5203	0.903591	0.719299	0.0433154	1.00785	0.00855907	-0.0330931	-0.194097	0.17749	0.183378	0	0	-0.069085	-0.0697918	-0.118104	0	0.0795984	0	0	0.0708068	0.0748079	-0.00703732	-0.159942	-0.184045	0.0222844	0.607103	1.5708	0	0	-0.0430037	-0.0758055	0.0685497	0.367815	1.5708	0	0
0.03	0.603751	1.52068	0.901094	0.719269	0.0433157	1.00789	0.00818649	-0.0332552	-0.193776	0.177553	0.183389	0	0	-0.0698541	-0.0696675	-0.115226	0	0.0778821	0	0	0.0704345	0.0747277	-0.00676428	-0.160077	-0.184076	0.0222569	0.607323	1.5708	0	0	-0.0428783	-0.075767	0.0689458	0.368055	1.5708	0	0
0.04	0.603326	1.52055	0.901357	0.71925	0.043299	1.00787	0.00836134	-0.0332244	-0.193717	0.17756	0.183416	0	0	-0.0696542	-0.0697035	-0.116151	0	0.078426	0	0	0.0704998	0.0748441	-0.00666066	-0.160007	-0.183991	0.021951	0.60724	1.5708	0	0	-0.0429615	-0.0758316	0.0694828	0.368498	1.5708	0	0
0.05	0.603728	1.52065	0.900882	0.719231	0.0432666	1.0079	0.00817893	-0.0332454	-0.193382	0.177267	0.183242	0	0	-0.0698425	-0.0696568	-0.11549	0	0.0780729	0	0	0.070454	0.0748272	-0.00676499	-0.159743	-0.184023	0.0223065	0.606903	1.5708	0	0	-0.0429992	-0.0758604	0.0694258	0.368529	1.5708	0	0
0.06	0.603092	1.52058	0.901415	0.719209	0.0432456	1.00789	0.00810419	-0.0331862	-0.193094	0.176838	0.182985	0	0	-0.0697376	-0.0696587	-0.115884	0	0.0782611	0	0	0.0705858	0.0749265	-0.00684762	-0.159629	-0.184122	0.0226314	0.60681	1.5708	0	0	-0.0430145	-0.075808	0.0690566	0.368295	1.5708	0	0
0.07	0.604468	1.5206	0.900067	0.719179	0.0432234	1.00789	0.0078292	-0.0330881	-0.192867	0.176344	0.182718	0	0	-0.0699019	-0.0697184	-0.114831	0	0.0777628	0	0	0.0704837	0.075023	-0.00684665	-0.15972	-0.184272	0.0229321	0.60709	1.5708	0	0	-0.0430121	-0.0758058	0.0693057	0.36861	1.5708	0	0
0.08	0.603729	1.52046	0.900745	0.719149	0.0432112	1.00787	0.00798623	-0.0330938	-0.193096	0.176318	0.18262	0	0	-0.0696809	-0.0697382	-0.115478	0	0.078191	0	0	0.0704703	0.0751502	-0.00678414	-0.159853	-0.184366	0.0228798	0.607497	1.5708	0	0	-0.0431593	-0.0758516	0.0697546	0.369259	1.5708	0	0
0.09	0.604815	1.52047	0.899643	0.719123	0.0431978	1.00787	0.0079185	-0.0330888	-0.193149	0.17622	0.182539	0	0	-0.0697476	-0.0697322	-0.114877	0	0.078018	0	0	0.0702615	0.0752832	-0.00666335	-0.160077	-0.184497	0.022818	0.608134	1.5708	0	0	-0.0431257	-0.0757902	0.0697906	0.369426	1.5708	0	0
0.1	0.604684	1.52036	0.899664	0.719104	0.0431721	1.00786	0.00803608	-0.0330657	-0.19325	0.176162	0.182478	0	0	-0.0695158	-0.0697414	-0.115876	0	0.0786292	0	0	0.0703944	0.0754298	-0.0067489	-0.159903	-0.184602	0.023236	0.607988	1.5708	0	0	-0.0431494	-0.0757521	0.0700008	0.369446	1.5708	0	0
0.11	0.605641	1.52039	0.898685	0.719071	0.0431499	1.00786	0.00793521	-0.0330654	-0.19334	0.176044	0.182477	0	0	-0.0696322	-0.0697395	-0.115385	0	0.0783594	0	0	0.0702743	0.0755355	-0.00670867	-0.15986	-0.184662	0.0231865	0.607936	1.5708	0	0	-0.0431997	-0.0757819	0.0703568	0.369646	1.5708	0	0
0.12	0.604286	1.52016	0.899957	0.71905	0.043144	1.00783	0.00815076	-0.0329997	-0.193421	0.175996	0.182544	0	0	-0.0693169	-0.0697844	-0.116356	0	0.0788632	0	0	0.0703379	0.0757363	-0.00655163	-0.160011	-0.184654	0.0225945	0.608022	1.5708	0	0	-0.0431671	-0.0757143	0.0705367	0.369694	1.5708	0	0
0.13	0.603985	1.5202	0.900304	0.719019	0.0431222	1.00783	0.00812518	-0.0330653	-0.193456	0.175965	0.182537	0	0	-0.0693585	-0.0697283	-0.115936	0	0.0786161	0	0	0.0702629	0.0757397	-0.00660454	-0.159985	-0.184695	0.0227373	0.607983	1.5708	0	0	-0.0429937	-0.0756446	0.0704302	0.369406	1.5708	0	0
0.14	0.60173	1.52012	0.902484	0.718986	0.0430932	1.00781	0.00840417	-0.0331689	-0.193532	0.176135	0.182572	0	0	-0.0690832	-0.0696356	-0.116858	0	0.0790834	0	0	0.0704592	0.0757758	-0.0067539	-0.159745	-0.18472	0.0229951	0.607541	1.5708	0	0	-0.0428821	-0.0755187	0.070208	0.369019	1.5708	0	0
0.15	0.600268	1.52013	0.903937	0.718949	0.0430876	1.00781	0.00857794	-0.0333156	-0.193633	0.176385	0.18273	0	0	-0.0690833	-0.0695213	-0.11639	0	0.0788476	0	0	0.0704139	0.0757981	-0.00666473	-0.15985	-0.184722	0.0226989	0.607552	1.5708	0	0	-0.0427948	-0.0754719	0.0703956	0.369028	1.5708	0	0
0.16	0.597709	1.51995	0.90647	0.718923	0.0430545	1.0078	0.00901641	-0.0333992	-0.193872	0.176748	0.182928	0	0	-0.0687258	-0.0694741	-0.117242	0	0.0793911	0	0	0.0706974	0.0759157	-0.00679043	-0.159752	-0.184726	0.0224979	0.607182	1.5708	0	0	-0.0427853	-0.0753896	0.0703952	0.368815	1.5708	0	0
0.17	0.598488	1.52007	0.905818	0.718867	0.0430558	1.00781	0.00909505	-0.0335044	-0.193934	0.177105	0.183024	0	0	-0.0688071	-0.0694245	-0.116761	0	0.0792412	0	0	0.070651	0.075914	-0.00709188	-0.159504	-0.184746	0.0227466	0.606734	1.5708	0	0	-0.0427494	-0.0754324	0.0705563	0.3688	1.5708	0	0
0.18	0.598044	1.52002	0.906302	0.71883	0.0430162	1.0078	0.00929015	-0.0335792	-0.194047	0.1774	0.183104	0	0	-0.068687	-0.0694039	-0.117145	0	0.0795549	0	0	0.0707644	0.0760327	-0.00723037	-0.159463	-0.184763	0.0224853	0.606537	1.5708	0	0	-0.0427072	-0.0753416	0.0705502	0.368671	1.5708	0	0
0.19	0.600576	1.5202	0.903925	0.718804	0.0429812	1.00782	0.00918022	-0.0336425	-0.194209	0.177642	0.183172	0	0	-0.0689278	-0.0693893	-0.116317	0	0.0792602	0	0	0.0706305	0.0760461	-0.00751389	-0.159354	-0.184816	0.0228097	0.606432	1.5708	0	0	-0.0426101	-0.0753602	0.070398	0.368495	1.5708	0	0
0.2	0.601121	1.52017	0.903375	0.718778	0.0429676	1.0078	0.00927129	-0.0336399	-0.194345	0.177744	0.183207	0	0	-0.0687598	-0.0693856	-0.117439	0	0.0799139	0	0	0.0707094	0.0761522	-0.00774967	-0.159201	-0.184843	0.0228969	0.606237	1.5708	0	0	-0.0424943	-0.0752667	0.0699582	0.368187	1.5708	0	0
0.21	0.601582	1.52026	0.903005	0.718731	0.0429483	1.0078	0.00925513	-0.0337322	-0.194475	0.17787	0.183283	0	0	-0.068813	-0.0693112	-0.117217	0	0.0798816	0	0	0.0706325	0.076183	-0.00796336	-0.15906	-0.184859	0.0228817	0.606166	1.5708	0	0	-0.0423649	-0.0752391	0.0698743	0.368016	1.5708	0	0
0.22	0.600923	1.52019	0.903712	0.718693	0.0429173	1.00779	0.00944891	-0.0337917	-0.19468	0.178069	0.183328	0	0	-0.0685714	-0.0692752	-0.118199	0	0.0804767	0	0	0.0707363	0.0763036	-0.00818816	-0.159071	-0.185073	0.0234192	0.606413	1.5708	0	0	-0.0425868	-0.0754313	0.0708106	0.36856	1.5708	0	0
0.23	0.603637	1.52039	0.901231	0.718625	0.0429332	1.00779	0.00916331	-0.033823	-0.194666	0.177992	0.183217	0	0	-0.0687657	-0.0692465	-0.117916	0	0.0804185	0	0	0.0705118	0.0763171	-0.0086051	-0.15921	-0.186213	0.028223	0.607464	1.56343	0	0	-0.0437595	-0.0765567	0.0752039	0.37158	1.5708	0	0
0.24	0.604276	1.52054	0.900567	0.718595	0.0428939	1.00777	0.00895781	-0.0339027	-0.194556	0.177859	0.183298	0	0	-0.0687207	-0.069105	-0.119967	0	0.0815402	0	0	0.0703609	0.0761787	-0.00901083	-0.159348	-0.188277	0.0380221	0.609073	1.54075	0	0	-0.0470755	-0.0798	0.0884595	0.380437	1.5708	0	0
0.25	0.659	1.52404	0.846001	0.718508	0.0423697	1.00805	0.00508219	-0.0342402	-0.194151	0.178796	0.183716	0	0	-0.0728439	-0.0688145	-0.120558	0	0.0829979	0	0	0.0612529	0.0757459	-0.00895391	-0.155477	-0.192462	0.0572518	0.613853	1.49537	0	0	-0.0505925	-0.0902869	0.133188	0.404875	1.5708	0	0
0.26	0.604006	1.52061	0.900805	0.718558	0.042873	1.00779	0.0090647	-0.0340228	-0.194527	0.178042	0.183682	0	0	-0.0685548	-0.0689429	-0.121346	0	0.0823258	0	0	0.0702585	0.076201	-0.00924049	-0.159281	-0.188303	0.038739	0.609447	1.53939	0	0	-0.0470484	-0.0799639	0.0886527	0.38054	1.5708	0	0
0.27	0.6012	1.52049	0.903547	0.718529	0.0428621	1.00781	0.00936531	-0.0340963	-0.194349	0.17818	0.183566	0	0	-0.0683488	-0.068874	-0.120868	0	0.0819253	0	0	0.0702675	0.0763434	-0.00872118	-0.158916	-0.184888	0.0226737	0.607177	1.5708	0	0	-0.0423643	-0.0756393	0.0699371	0.368228	1.5708	0	0
0.28	0.601657	1.52066	0.903031	0.718499	0.0428589	1.00781	0.00934813	-0.0342676	-0.194518	0.178466	0.183561	0	0	-0.0686656	-0.0687893	-0.119401	0	0.0811061	0	0	0.0698457	0.0763362	-0.0084477	-0.15919	-0.184845	0.0222155	0.607871	1.5708	0	0	-0.0423063	-0.075676	0.0697192	0.368544	1.5708	0	0
0.29	0.601317	1.5207	0.903288	0.718485	0.0428385	1.0078	0.00948435	-0.0343561	-0.194655	0.178706	0.183633	0	0	-0.0686962	-0.0687351	-0.119093	0	0.0809164	0	0	0.0696158	0.076349	-0.00834942	-0.159201	-0.184752	0.0219311	0.608152	1.5708	0	0	-0.0421181	-0.075623	0.0690856	0.368456	1.5708	0	0
0.3	0.600062	1.52126	0.904535	0.718461	0.0427888	1.00786	0.00919922	-0.034862	-0.194789	0.178939	0.183752	0	0	-0.0691786	-0.0681934	-0.117907	0	0.079862	0	0	0.0690209	0.07593	-0.00835519	-0.158869	-0.18465	0.0222899	0.607927	1.5708	0	0	-0.0417555	-0.0756094	0.0680935	0.367779	1.5708	0	0
0.31	0.601771	1.52098	0.902795	0.718462	0.0427098	1.00783	0.00964537	-0.0346387	-0.194979	0.179317	0.183864	0	0	-0.068932	-0.0685903	-0.118062	0	0.0803307	0	0	0.0691186	0.0762453	-0.00862744	-0.158519	-0.184797	0.0230127	0.607752	1.5708	0	0	-0.0415976	-0.0755072	0.0673221	0.36725	1.5708	0	0
0.32	0.601816	1.52117	0.902633	0.71846	0.0426701	1.00786	0.00974969	-0.0348145	-0.195008	0.179696	0.18394	0	0	-0.0691297	-0.0685149	-0.117625	0	0.0799231	0	0	0.0687581	0.0761386	-0.00868039	-0.15809	-0.184813	0.0237288	0.607468	1.5708	0	0	-0.0413756	-0.075501	0.0669168	0.366849	1.5708	0	0
0.33	0.599403	1.52153	0.904875	0.718466	0.0426229	1.00791	0.00974048	-0.0352578	-0.195091	0.180032	0.183978	0	0	-0.0693189	-0.0680888	-0.118387	0	0.0795837	0	0	0.0682701	0.0758434	-0.00874357	-0.157503	-0.18467	0.0241797	0.606886	1.5708	0	0	-0.0409885	-0.0753415	0.0657866	0.3658	1.5708	0	0
0.34	0.604201	1.52126	0.900342	0.718468	0.0425411	1.0079	0.0100117	-0.0348575	-0.195336	0.180295	0.183966	0	0	-0.0693244	-0.0687149	-0.117127	0	0.0793412	0	0	0.0680046	0.07622	-0.00926068	-0.157079	-0.184738	0.02482	0.606842	1.5708	0	0	-0.0405383	-0.0751718	0.0649088	0.364842	1.5708	0	0
0.35	0.605387	1.52091	0.899405	0.718481	0.0424552	1.00789	0.0104626	-0.0345431	-0.195732	0.18044	0.183911	0	0	-0.0688267	-0.0691288	-0.11787	0	0.0799309	0	0	0.0678482	0.0764612	-0.00990105	-0.156432	-0.184581	0.0251197	0.606381	1.5708	0	0	-0.0400495	-0.0750879	0.0639699	0.363914	1.5708	0	0
0.36	0.606566	1.52067	0.898213	0.718543	0.0423511	1.00791	0.0109164	-0.03432	-0.195851	0.180819	0.183929	0	0	-0.0686082	-0.0694852	-0.117533	0	0.0797145	0	0	0.0676351	0.0766597	-0.0102384	-0.155881	-0.184414	0.0253356	0.60601	1.5708	0	0	-0.0394239	-0.0748772	0.0624009	0.36235	1.5708	0	0
0.37	0.603731	1.52024	0.900512	0.718641	0.0422858	1.00789	0.0118104	-0.0341439	-0.195561	0.181371	0.183999	0	0	-0.0680854	-0.0697672	-0.118756	0	0.079951	0	0	0.0677108	0.0768431	-0.0100934	-0.155597	-0.184187	0.025109	0.605822	1.5708	0	0	-0.0389587	-0.0746617	0.0609795	0.360727	1.5708	0	0
0.38	0.602105	1.52001	0.901455	0.718773	0.0422263	1.00788	0.012714	-0.0341141	-0.195605	0.182498	0.184402	0	0	-0.0679985	-0.0699963	-0.118807	0	0.0795394	0	0	0.0674802	0.0768578	-0.00971511	-0.155278	-0.183981	0.0249926	0.605742	1.5708	0	0	-0.0388667	-0.0748107	0.0604301	0.360117	1.5708	0	0
0.39	0.600978	1.51961	0.902292	0.718919	0.0421198	1.00786	0.013767	-0.0339179	-0.1961	0.183638	0.184843	0	0	-0.0674706	-0.0703911	-0.120067	0	0.080066	0	0	0.0672709	0.0768645	-0.0100743	-0.154465	-0.183655	0.0251973	0.605264	1.5708	0	0	-0.0386163	-0.0750664	0.0598353	0.359519	1.5708	0	0
0.4	0.601331	1.51944	0.901503	0.719112	0.0420115	1.00786	0.0145873	-0.03375	-0.196276	0.184764	0.185346	0	0	-0.0673981	-0.0707219	-0.120287	0	0.0798466	0	0	0.0668585	0.0767519	-0.0103773	-0.153781	-0.183351	0.0255805	0.60508	1.5708	0	0	-0.0382574	-0.0752065	0.0582661	0.358272	1.5708	0	0
